<svg width="70" height="21" viewBox="0 0 70 21" fill="none" xmlns="http://www.w3.org/2000/svg">
<g clip-path="url(#clip0_1272_4886)">
<path d="M7.58062 3.38953V9.03098H2.44039V3.38953H0V16.8562H2.44039V11.398H7.58062V16.8562H10.021V3.38953H7.58062Z" fill="#33475B"/>
<path d="M17.8312 12.5031C17.8312 13.0428 17.6185 13.5604 17.2398 13.942C16.8612 14.3237 16.3477 14.5381 15.8123 14.5381C15.2768 14.5381 14.7633 14.3237 14.3847 13.942C14.0061 13.5604 13.7934 13.0428 13.7934 12.5031V6.73511H11.4785V12.5031C11.4785 13.6605 11.9347 14.7705 12.7466 15.5889C13.5586 16.4073 14.6598 16.8671 15.8081 16.8671C16.9564 16.8671 18.0576 16.4073 18.8695 15.5889C19.6815 14.7705 20.1376 13.6605 20.1376 12.5031V6.73511H17.8312V12.5031Z" fill="#33475B"/>
<path d="M34.9821 7.32927C34.9821 6.14698 35.7581 5.77217 36.6083 5.77217C37.2934 5.77217 38.1985 6.29763 38.7904 6.93517L40.3065 5.13463C39.5496 4.10299 38.0144 3.38953 36.7577 3.38953C34.2468 3.38953 32.4306 4.8719 32.4306 7.32927C32.4306 11.8885 37.9594 10.4423 37.9594 12.9936C37.9594 13.7806 37.2013 14.476 36.3333 14.476C34.9642 14.476 34.5206 13.8011 33.8917 13.0876L32.2094 14.8508C33.2855 16.1825 34.6127 16.8586 36.2029 16.8586C38.5883 16.8586 40.5074 15.3582 40.5074 13.0129C40.5074 7.95114 34.9786 9.5239 34.9786 7.32927" fill="#33475B"/>
<path d="M69.1857 14.705C67.8179 14.705 67.4293 14.1084 67.4293 13.1949V9.15151H69.5552V7.1027H67.4293V4.39948L65.0822 5.46124V13.6975C65.0822 15.8041 66.5241 16.8659 68.5018 16.8659C68.812 16.8716 69.1219 16.8465 69.4273 16.7912L70 14.6664C69.7417 14.6845 69.4452 14.7026 69.1857 14.7026" fill="#33475B"/>
<path d="M26.6421 6.8026C25.4955 6.8026 24.6955 7.13764 23.9219 7.90294V3.47028H21.6035V11.686C21.6035 14.7616 23.8095 16.8683 26.2882 16.8683C29.0383 16.8683 31.4571 14.7243 31.4571 11.8366C31.4571 8.98519 29.2308 6.80381 26.6421 6.80381V6.8026ZM26.6278 14.517C26.1075 14.517 25.5989 14.3615 25.1663 14.0701C24.7338 13.7788 24.3966 13.3647 24.1975 12.8802C23.9984 12.3957 23.9463 11.8626 24.0478 11.3483C24.1493 10.834 24.3998 10.3616 24.7677 9.99075C25.1356 9.61995 25.6043 9.36742 26.1146 9.26512C26.6249 9.16281 27.1538 9.21532 27.6344 9.416C28.1151 9.61668 28.5259 9.95651 28.8149 10.3925C29.104 10.8286 29.2583 11.3412 29.2583 11.8656C29.2583 12.5688 28.9811 13.2432 28.4878 13.7404C27.9945 14.2376 27.3254 14.517 26.6278 14.517Z" fill="#33475B"/>
<path d="M51.816 11.7137C51.816 8.8213 49.4019 6.6821 46.6471 6.6821C44.1684 6.6821 41.9624 8.78876 41.9624 11.8644V20.0849H44.2808V15.6462C45.0532 16.4103 45.8543 16.7466 46.9998 16.7466C49.5884 16.7466 51.8148 14.5664 51.8148 11.7137H51.816ZM49.6207 11.6848C49.6207 12.2092 49.4665 12.7218 49.1774 13.1578C48.8884 13.5939 48.4775 13.9337 47.9969 14.1344C47.5162 14.3351 46.9873 14.3876 46.4771 14.2853C45.9668 14.183 45.4981 13.9304 45.1302 13.5596C44.7623 13.1888 44.5118 12.7164 44.4103 12.2021C44.3088 11.6877 44.3609 11.1546 44.56 10.6702C44.7591 10.1857 45.0962 9.77159 45.5288 9.48025C45.9614 9.18891 46.47 9.03341 46.9902 9.03341C47.6879 9.03341 48.357 9.31275 48.8503 9.80998C49.3436 10.3072 49.6207 10.9816 49.6207 11.6848Z" fill="#33475B"/>
<path d="M59.3059 6.56884V4.22114C59.6137 4.07618 59.8743 3.84607 60.0574 3.5576C60.2405 3.26914 60.3386 2.93419 60.3402 2.59174V2.5375C60.3402 2.05805 60.1512 1.59824 59.8148 1.25922C59.4785 0.920192 59.0223 0.729731 58.5466 0.729731H58.4928C58.0172 0.729731 57.561 0.920192 57.2246 1.25922C56.8883 1.59824 56.6993 2.05805 56.6993 2.5375V2.59174C56.7009 2.93419 56.7989 3.26914 56.982 3.5576C57.1651 3.84607 57.4258 4.07618 57.7336 4.22114V6.56884C56.8489 6.70526 56.0157 7.07487 55.3183 7.64024L48.931 2.62548C48.9762 2.46011 49.0003 2.28961 49.0027 2.1181C49.0034 1.71522 48.8856 1.32117 48.6641 0.985807C48.4426 0.650441 48.1274 0.388821 47.7583 0.234039C47.3893 0.0792565 46.983 0.0382653 46.5909 0.11625C46.1987 0.194235 45.8383 0.387692 45.5553 0.672152C45.2722 0.956612 45.0792 1.3193 45.0007 1.71433C44.9222 2.10936 44.9616 2.51899 45.1141 2.89141C45.2666 3.26383 45.5252 3.58231 45.8573 3.80656C46.1893 4.03081 46.5799 4.15077 46.9796 4.15124C47.3291 4.14967 47.6721 4.05576 47.9744 3.87887L54.2649 8.81168C53.6997 9.67215 53.4048 10.6843 53.4186 11.7162C53.4325 12.7481 53.7545 13.7518 54.3426 14.5966L52.4295 16.5248C52.2748 16.4751 52.1136 16.4487 51.9513 16.4465C51.6231 16.4467 51.3024 16.545 51.0297 16.7289C50.7569 16.9128 50.5444 17.1741 50.4189 17.4797C50.2935 17.7853 50.2607 18.1216 50.3248 18.4459C50.3889 18.7703 50.5469 19.0683 50.7789 19.3021C51.011 19.536 51.3066 19.6953 51.6284 19.7599C51.9502 19.8245 52.2838 19.7915 52.587 19.665C52.8902 19.5385 53.1494 19.3243 53.3319 19.0494C53.5143 18.7745 53.6118 18.4513 53.6121 18.1205C53.61 17.9568 53.5838 17.7944 53.5343 17.6384L55.4271 15.7306C56.0443 16.2094 56.762 16.5393 57.5252 16.6953C58.2885 16.8513 59.077 16.8292 59.8305 16.6306C60.5839 16.4319 61.2823 16.0622 61.872 15.5495C62.4618 15.0369 62.9273 14.395 63.233 13.673C63.5387 12.9511 63.6763 12.1681 63.6355 11.3843C63.5946 10.6004 63.3763 9.83632 62.9972 9.15061C62.6182 8.4649 62.0884 7.87573 61.4486 7.42822C60.8088 6.98072 60.0758 6.68675 59.3059 6.56884ZM58.5215 14.2892C58.0038 14.2888 57.4978 14.1336 57.0675 13.8433C56.6372 13.5531 56.302 13.1408 56.1041 12.6585C55.9063 12.1763 55.8547 11.6457 55.9559 11.1339C56.0571 10.6221 56.3066 10.1521 56.6727 9.78316C57.0389 9.41423 57.5054 9.163 58.0132 9.06122C58.521 8.95944 59.0473 9.01168 59.5257 9.21133C60.0041 9.41098 60.413 9.74909 60.7007 10.1829C60.9885 10.6167 61.1422 11.1268 61.1425 11.6487C61.1425 12.3487 60.8666 13.02 60.3755 13.515C59.8844 14.01 59.2184 14.288 58.5239 14.288" fill="#FF7A59"/>
</g>
<defs>
<clipPath id="clip0_1272_4886">
<rect width="70" height="20" fill="white" transform="translate(0 0.078949)"/>
</clipPath>
</defs>
</svg>
