<svg width="71" height="24" viewBox="0 0 71 24" fill="none" xmlns="http://www.w3.org/2000/svg">
<g clip-path="url(#clip0_1272_4857)">
<path d="M30.2885 12.0919C30.2885 15.3648 27.7176 17.7765 24.5624 17.7765C21.4073 17.7765 18.8363 15.3648 18.8363 12.0919C18.8363 8.79597 21.4073 6.40732 24.5624 6.40732C27.7176 6.40732 30.2885 8.79597 30.2885 12.0919ZM27.7819 12.0919C27.7819 10.0467 26.2918 8.64732 24.5624 8.64732C22.833 8.64732 21.3429 10.0467 21.3429 12.0919C21.3429 14.1166 22.833 15.5365 24.5624 15.5365C26.2918 15.5365 27.7819 14.114 27.7819 12.0919Z" fill="#EA4335"/>
<path d="M42.6415 12.0919C42.6415 15.3648 40.0706 17.7765 36.9154 17.7765C33.7603 17.7765 31.1893 15.3648 31.1893 12.0919C31.1893 8.79853 33.7603 6.40732 36.9154 6.40732C40.0706 6.40732 42.6415 8.79597 42.6415 12.0919ZM40.1349 12.0919C40.1349 10.0467 38.6448 8.64732 36.9154 8.64732C35.186 8.64732 33.6959 10.0467 33.6959 12.0919C33.6959 14.1166 35.186 15.5365 36.9154 15.5365C38.6448 15.5365 40.1349 14.114 40.1349 12.0919Z" fill="#FBBC05"/>
<path d="M54.4798 6.75075V16.9563C54.4798 21.1544 51.9937 22.869 49.0548 22.869C46.2882 22.869 44.6231 21.0263 43.9952 19.5193L46.1776 18.6145C46.5662 19.5398 47.5184 20.6316 49.0522 20.6316C50.9334 20.6316 52.0993 19.4757 52.0993 17.2998V16.4822H52.0118C51.4507 17.1716 50.3698 17.7739 49.0059 17.7739C46.1518 17.7739 43.5371 15.2981 43.5371 12.1124C43.5371 8.90361 46.1518 6.40732 49.0059 6.40732C50.3673 6.40732 51.4481 7.00961 52.0118 7.67853H52.0993V6.75331H54.4798V6.75075ZM52.2768 12.1124C52.2768 10.1108 50.936 8.64732 49.2298 8.64732C47.5004 8.64732 46.0515 10.1108 46.0515 12.1124C46.0515 14.0935 47.5004 15.5365 49.2298 15.5365C50.936 15.5365 52.2768 14.0935 52.2768 12.1124Z" fill="#4285F4"/>
<path d="M58.4044 0.76889V17.4279H55.9596V0.76889H58.4044Z" fill="#34A853"/>
<path d="M67.9317 13.9628L69.8773 15.2545C69.2493 16.1798 67.7361 17.7739 65.1214 17.7739C61.8787 17.7739 59.457 15.2776 59.457 12.0893C59.457 8.70883 61.8993 6.40475 64.8409 6.40475C67.803 6.40475 69.2519 8.7524 69.7254 10.021L69.9853 10.6669L62.3548 13.8142C62.939 14.9547 63.8475 15.5365 65.1214 15.5365C66.3978 15.5365 67.2831 14.9111 67.9317 13.9628ZM61.9431 11.9176L67.0438 9.80832C66.7633 9.09839 65.9192 8.60375 64.9258 8.60375C63.6519 8.60375 61.8787 9.72375 61.9431 11.9176Z" fill="#EA4335"/>
<path d="M9.58211 10.6131V8.20137H17.7428C17.8226 8.62169 17.8637 9.1189 17.8637 9.65711C17.8637 11.4665 17.367 13.704 15.7663 15.2981C14.2093 16.9128 12.22 17.7739 9.58469 17.7739C4.70013 17.7739 0.592773 13.8116 0.592773 8.94718C0.592773 4.08274 4.70013 0.120453 9.58469 0.120453C12.2869 0.120453 14.2119 1.17638 15.6582 2.55267L13.9494 4.25446C12.9123 3.28567 11.5071 2.53217 9.58211 2.53217C6.0152 2.53217 3.22549 5.39496 3.22549 8.94718C3.22549 12.4994 6.0152 15.3622 9.58211 15.3622C11.8957 15.3622 13.2134 14.437 14.0575 13.5963C14.742 12.9146 15.1924 11.9407 15.37 10.6105L9.58211 10.6131Z" fill="#4285F4"/>
</g>
<defs>
<clipPath id="clip0_1272_4857">
<rect width="70" height="23.5789" fill="white" transform="translate(0.5)"/>
</clipPath>
</defs>
</svg>
