<svg width="70" height="16" viewBox="0 0 70 16" fill="none" xmlns="http://www.w3.org/2000/svg">
<g clip-path="url(#clip0_1272_4874)">
<path d="M24.7086 9.21225L24.2914 10.3918H24.2566C24.1871 10.1258 24.0596 9.72109 23.851 9.23538L21.6142 3.62666H19.4238V12.5659H20.8725V7.04972C20.8725 6.70279 20.8725 6.3096 20.8609 5.82389C20.8493 5.58104 20.8261 5.39601 20.8146 5.25724H20.8493C20.9189 5.60417 21 5.85859 21.0579 6.02049L23.7467 12.5428H24.7665L27.4321 5.96267C27.4901 5.81233 27.548 5.51166 27.6059 5.25724H27.6407C27.6059 5.91641 27.5828 6.50619 27.5712 6.86469V12.5312H29.1126V3.60354H27.0033L24.7086 9.21225ZM30.5728 6.12457H32.0795V12.5312H30.5728V6.12457ZM31.3377 3.41851C31.0828 3.41851 30.8742 3.51102 30.7003 3.67292C30.5265 3.83482 30.4338 4.04298 30.4338 4.2974C30.4338 4.54025 30.5265 4.74841 30.7003 4.91031C30.8742 5.07221 31.0828 5.15316 31.3377 5.15316C31.5927 5.15316 31.8129 5.06065 31.9752 4.91031C32.149 4.74841 32.2417 4.54025 32.2417 4.2974C32.2417 4.05455 32.149 3.84639 31.9752 3.67292C31.8245 3.51102 31.6043 3.41851 31.3377 3.41851ZM37.4222 6.06675C37.144 6.00892 36.8543 5.97423 36.5761 5.97423C35.8924 5.97423 35.2665 6.12457 34.745 6.42524C34.2235 6.72591 33.8063 7.14223 33.5397 7.66263C33.2616 8.19459 33.1225 8.8075 33.1225 9.51293C33.1225 10.1258 33.2616 10.6694 33.5281 11.1666C33.7947 11.6523 34.1656 12.0455 34.6639 12.3115C35.1391 12.5775 35.6954 12.7163 36.3212 12.7163C37.0397 12.7163 37.654 12.5659 38.1407 12.2884L38.1523 12.2768V10.8891L38.0944 10.9353C37.8742 11.0972 37.6192 11.236 37.3642 11.317C37.0977 11.4095 36.8543 11.4557 36.6457 11.4557C36.043 11.4557 35.5679 11.2823 35.2318 10.9007C34.8841 10.5306 34.7103 10.0218 34.7103 9.38572C34.7103 8.72655 34.8841 8.20615 35.2434 7.82453C35.6026 7.4429 36.0778 7.24631 36.6573 7.24631C37.144 7.24631 37.6424 7.40821 38.0944 7.73201L38.1523 7.77827V6.3096L38.1407 6.29803C37.9437 6.21708 37.7235 6.12457 37.4222 6.06675ZM42.394 6.02049C42.0232 6.02049 41.6755 6.13613 41.3742 6.37898C41.1192 6.58714 40.9454 6.88782 40.7947 7.24631H40.7831V6.12457H39.2765V12.5312H40.7831V9.25851C40.7831 8.70342 40.899 8.24085 41.154 7.90548C41.4089 7.55855 41.7334 7.38508 42.1275 7.38508C42.2665 7.38508 42.4056 7.41978 42.5795 7.44291C42.7417 7.48916 42.8576 7.53542 42.9387 7.59324L42.9967 7.6395V6.13613L42.9619 6.12457C42.8576 6.05518 42.649 6.02049 42.394 6.02049ZM46.4967 5.9858C45.442 5.9858 44.596 6.29803 44.005 6.91094C43.4023 7.52386 43.1126 8.36805 43.1126 9.43198C43.1126 10.4265 43.4139 11.236 43.9934 11.8258C44.5728 12.404 45.3609 12.7047 46.346 12.7047C47.3775 12.7047 48.2003 12.3925 48.7914 11.768C49.394 11.1435 49.6838 10.3109 49.6838 9.28164C49.6838 8.26398 49.4056 7.45447 48.8377 6.86469C48.293 6.2749 47.4934 5.9858 46.4967 5.9858ZM47.702 10.9122C47.4238 11.2707 46.9834 11.4442 46.4387 11.4442C45.894 11.4442 45.4536 11.2707 45.1407 10.8891C44.8278 10.5306 44.6771 10.0102 44.6771 9.35103C44.6771 8.66873 44.8394 8.14833 45.1407 7.77827C45.4536 7.40821 45.8824 7.22318 46.4271 7.22318C46.9603 7.22318 47.3775 7.39665 47.6788 7.75514C47.9801 8.11364 48.1424 8.63404 48.1424 9.31633C48.1192 10.0102 47.9917 10.5537 47.702 10.9122ZM53.0447 8.78437C52.5695 8.58778 52.2682 8.43744 52.1291 8.31023C52.0132 8.19459 51.9553 8.03269 51.9553 7.82453C51.9553 7.65106 52.0248 7.4776 52.1987 7.36195C52.3725 7.24631 52.5695 7.18849 52.8593 7.18849C53.1142 7.18849 53.3808 7.23475 53.6357 7.30413C53.8907 7.37352 54.1225 7.4776 54.3079 7.61637L54.3659 7.66263V6.25178L54.3311 6.24021C54.1573 6.17082 53.9255 6.10144 53.6473 6.04362C53.3692 5.99736 53.1142 5.97423 52.9056 5.97423C52.1871 5.97423 51.596 6.1477 51.1324 6.52932C50.6689 6.88782 50.4487 7.37352 50.4487 7.94017C50.4487 8.24085 50.495 8.50683 50.5993 8.72655C50.7036 8.94627 50.8543 9.15443 51.0629 9.3279C51.2715 9.4898 51.5728 9.67483 51.9901 9.84829C52.3377 9.99863 52.6043 10.1143 52.7665 10.2068C52.9288 10.2993 53.0331 10.4034 53.1142 10.4843C53.1722 10.5768 53.2069 10.6925 53.2069 10.8428C53.2069 11.2707 52.8824 11.4789 52.2218 11.4789C51.9669 11.4789 51.7003 11.4326 51.3874 11.3285C51.0745 11.2245 50.7848 11.0741 50.5414 10.9007L50.4834 10.8544V12.3231L50.5182 12.3346C50.7384 12.4387 51.005 12.5081 51.3295 12.589C51.654 12.6469 51.9437 12.6931 52.1987 12.6931C52.9752 12.6931 53.6126 12.5197 54.0646 12.138C54.5281 11.768 54.7715 11.2938 54.7715 10.6809C54.7715 10.253 54.6556 9.87142 54.4007 9.58231C54.0646 9.30477 53.6473 9.01566 53.0447 8.78437ZM58.7467 5.9858C57.692 5.9858 56.846 6.29803 56.255 6.91094C55.6639 7.52386 55.3626 8.36805 55.3626 9.43198C55.3626 10.4265 55.6639 11.236 56.2434 11.8258C56.8228 12.404 57.6109 12.7047 58.596 12.7047C59.6275 12.7047 60.4503 12.3925 61.0414 11.768C61.644 11.1435 61.9338 10.3109 61.9338 9.28164C61.9338 8.26398 61.6556 7.45447 61.0877 6.86469C60.543 6.2749 59.7434 5.9858 58.7467 5.9858ZM59.9404 10.9122C59.6622 11.2707 59.2218 11.4442 58.6771 11.4442C58.1208 11.4442 57.692 11.2707 57.3791 10.8891C57.0662 10.5306 56.9156 10.0102 56.9156 9.35103C56.9156 8.66873 57.0778 8.14833 57.3791 7.77827C57.692 7.40821 58.1208 7.22318 58.6656 7.22318C59.1871 7.22318 59.6159 7.39665 59.9172 7.75514C60.2185 8.11364 60.3808 8.63404 60.3808 9.31633C60.3808 10.0102 60.2301 10.5537 59.9404 10.9122ZM69.9884 7.36195V6.12457H68.4702V4.22801L68.4238 4.23958L66.9867 4.66746L66.952 4.67902V6.12457H64.6804V5.31506C64.6804 4.945 64.7732 4.65589 64.9354 4.47086C65.0977 4.28583 65.341 4.19332 65.6424 4.19332C65.851 4.19332 66.0712 4.23958 66.3146 4.34365L66.3725 4.37835V3.07157L66.3377 3.06001C66.1291 2.99062 65.851 2.94437 65.4917 2.94437C65.0397 2.94437 64.6457 3.04845 64.2864 3.22191C63.9271 3.41851 63.6606 3.68449 63.4636 4.04298C63.2665 4.38991 63.1622 4.7831 63.1622 5.23411V6.12457H62.1076V7.35039H63.1622V12.5312H64.6804V7.36195H66.952V10.6578C66.952 12.0108 67.5894 12.6931 68.8642 12.6931C69.0728 12.6931 69.293 12.6584 69.5016 12.6237C69.7218 12.5775 69.8841 12.5197 69.9768 12.4734L69.9884 12.4618V11.2245L69.9305 11.2707C69.8377 11.3285 69.7566 11.3748 69.6175 11.4095C69.5016 11.4442 69.3973 11.4557 69.3162 11.4557C69.0149 11.4557 68.8063 11.3864 68.6556 11.2129C68.5165 11.051 68.447 10.785 68.447 10.3918V7.36195H69.9884Z" fill="#737373"/>
<path d="M0 0.619934H7.1043V7.70889H0V0.619934Z" fill="#F25022"/>
<path d="M7.84595 0.619934H14.9503V7.70889H7.84595V0.619934Z" fill="#7FBA00"/>
<path d="M0 8.44901H7.1043V15.538H0V8.44901Z" fill="#00A4EF"/>
<path d="M7.84595 8.44901H14.9503V15.538H7.84595V8.44901Z" fill="#FFB900"/>
</g>
<defs>
<clipPath id="clip0_1272_4874">
<rect width="70" height="14.918" fill="white" transform="translate(0 0.619934)"/>
</clipPath>
</defs>
</svg>
