<svg width="71" height="22" viewBox="0 0 71 22" fill="none" xmlns="http://www.w3.org/2000/svg">
<g clip-path="url(#clip0_1272_4880)">
<path d="M52.5547 20.9504L58.3924 14.4848L52.5547 8.01834H58.7141L61.6054 11.1593L64.3896 8.01834H70.3341L64.5241 14.4581L70.4138 20.9504H64.2292L61.364 17.7836L58.526 20.9504H52.5547Z" fill="#FF6600"/>
<path d="M52.5547 5.11945H45.943V8.01835H52.5547V12.3872H45.943V16.3973H52.5547V20.9504H41.0835V0.578949H52.5547V5.11945Z" fill="#FF6600"/>
<path d="M36.2444 0.578949V8.91595H36.1912C35.1199 7.70215 33.7813 7.28035 32.2283 7.28035C29.0469 7.28035 26.6505 9.41215 25.8093 12.2306C24.85 9.12505 22.3759 7.22215 18.7073 7.22215C15.728 7.22215 13.3754 8.54035 12.1477 10.6883V8.01865H5.98952V5.12005H12.7098V0.578949H0.5V20.9507H5.98952V12.3872H11.4611C11.298 13.0163 11.2109 13.6898 11.2109 14.4005C11.2109 18.65 14.5043 21.6317 18.7073 21.6317C22.2417 21.6317 24.5709 19.9961 25.8029 17.0141H21.0986C20.4622 17.9099 19.9795 18.176 18.7073 18.176C17.2321 18.176 15.9603 16.9073 15.9603 15.4034H25.5393C25.9547 18.7787 28.622 21.6896 32.2824 21.6896C33.8614 21.6896 35.307 20.924 36.1912 19.6313H36.2444V20.9501H41.0836V0.578949H36.2444ZM16.113 12.4481C16.4183 11.1542 17.4363 10.3085 18.7073 10.3085C20.1064 10.3085 21.0727 11.1281 21.3268 12.4481C21.434 12.4481 16.113 12.4481 16.113 12.4481ZM33.3078 17.8487C31.524 17.8487 30.4156 16.2104 30.4156 14.4998C30.4156 12.6713 31.3797 10.913 33.3078 10.913C35.307 10.913 36.1035 12.6713 36.1035 14.4998C36.1032 16.2338 35.2593 17.8487 33.3078 17.8487Z" fill="#652C8F"/>
</g>
<defs>
<clipPath id="clip0_1272_4880">
<rect width="70" height="21" fill="white" transform="translate(0.5 0.578949)"/>
</clipPath>
</defs>
</svg>
