<svg width="70" height="23" viewBox="0 0 70 23" fill="none" xmlns="http://www.w3.org/2000/svg">
<g clip-path="url(#clip0_1272_4864)">
<path fill-rule="evenodd" clip-rule="evenodd" d="M43.4266 17.923C39.3588 21.0141 33.4627 22.6633 28.3863 22.6633C21.2684 22.6633 14.8604 19.9492 10.0126 15.435C9.6317 15.0801 9.97297 14.5963 10.43 14.8727C15.6618 18.0109 22.1307 19.8989 28.8129 19.8989C33.3195 19.8989 38.2771 18.9376 42.8355 16.9429C43.5241 16.6413 44.1 17.4078 43.4266 17.923Z" fill="#FF9900"/>
<path fill-rule="evenodd" clip-rule="evenodd" d="M45.1179 15.9282C44.5999 15.2434 41.6808 15.6046 40.3706 15.7649C39.9714 15.8151 39.9105 15.457 40.27 15.1994C42.5949 13.5125 46.4098 13.9994 46.8547 14.5649C47.2996 15.1334 46.7389 19.0758 44.5542 20.9575C44.219 21.2465 43.8991 21.0926 44.0484 20.7093C44.539 19.4465 45.6389 16.6162 45.1179 15.9282Z" fill="#FF9900"/>
<path fill-rule="evenodd" clip-rule="evenodd" d="M40.4619 3.29056V1.65077C40.4619 1.40261 40.6447 1.23611 40.8641 1.23611H47.9851C48.2136 1.23611 48.3964 1.40575 48.3964 1.65077V3.05496C48.3934 3.29056 48.2014 3.59841 47.8602 4.08532L44.1702 9.51671C45.5413 9.48216 46.9887 9.69263 48.2319 10.4151C48.5122 10.5785 48.5884 10.8172 48.6097 11.0528V12.8026C48.6097 13.0413 48.3538 13.3209 48.0856 13.1764C45.8948 11.9921 42.9849 11.8633 40.5624 13.1889C40.3156 13.3272 40.0566 13.0507 40.0566 12.812V11.1502C40.0566 10.8832 40.0597 10.4277 40.3187 10.0225L44.5937 3.70207H40.8732C40.6447 3.70207 40.4619 3.53558 40.4619 3.29056Z" fill="black"/>
<path fill-rule="evenodd" clip-rule="evenodd" d="M14.4857 13.5219H12.3192C12.112 13.5062 11.9475 13.346 11.9323 13.1418V1.67904C11.9323 1.44972 12.1181 1.26752 12.3497 1.26752H14.3699C14.5801 1.27694 14.7477 1.44343 14.763 1.65076V3.14919H14.8026C15.3297 1.70102 16.32 1.02563 17.6546 1.02563C19.0106 1.02563 19.8576 1.70102 20.4671 3.14919C20.9911 1.70102 22.1825 1.02563 23.4593 1.02563C24.3673 1.02563 25.3606 1.41202 25.967 2.27903C26.6526 3.24343 26.5124 4.64447 26.5124 5.87274L26.5094 13.1073C26.5094 13.3366 26.3235 13.5219 26.0919 13.5219H23.9285C23.7122 13.5062 23.5385 13.3272 23.5385 13.1073V7.03189C23.5385 6.54813 23.5811 5.34185 23.4775 4.88321C23.3161 4.11358 22.8316 3.89683 22.2039 3.89683C21.6798 3.89683 21.1313 4.25808 20.9089 4.83609C20.6864 5.4141 20.7078 6.38163 20.7078 7.03189V13.1073C20.7078 13.3366 20.5219 13.5219 20.2903 13.5219H18.1269C17.9075 13.5062 17.7369 13.3272 17.7369 13.1073L17.7338 7.03189C17.7338 5.75336 17.938 3.8717 16.3992 3.8717C14.8422 3.8717 14.9031 5.70624 14.9031 7.03189V13.1073C14.9031 13.3366 14.7173 13.5219 14.4857 13.5219" fill="black"/>
<path fill-rule="evenodd" clip-rule="evenodd" d="M54.527 1.02563C57.7417 1.02563 59.4816 3.8717 59.4816 7.49053C59.4816 10.9869 57.5589 13.7607 54.527 13.7607C51.3703 13.7607 49.6517 10.9146 49.6517 7.36802C49.6517 3.79945 51.3916 1.02563 54.527 1.02563ZM54.5453 3.36594C52.9487 3.36594 52.8481 5.60886 52.8481 7.00676C52.8481 8.40781 52.8268 11.3984 54.527 11.3984C56.206 11.3984 56.2852 8.98582 56.2852 7.51566C56.2852 6.54813 56.2456 5.39211 55.9622 4.47484C55.7184 3.67694 55.234 3.36594 54.5453 3.36594Z" fill="black"/>
<path fill-rule="evenodd" clip-rule="evenodd" d="M63.65 13.5219H61.4927C61.2763 13.5062 61.1027 13.3272 61.1027 13.1073L61.0996 1.64134C61.1179 1.43087 61.2977 1.26752 61.5171 1.26752H63.5251C63.714 1.27694 63.8694 1.40888 63.912 1.58794V3.34081H63.9517C64.558 1.77328 65.4081 1.02563 66.9042 1.02563C67.8763 1.02563 68.8239 1.38689 69.4333 2.37641C70.0001 3.29369 70.0001 4.83609 70.0001 5.94498V13.1607C69.9757 13.3617 69.7959 13.5219 69.5826 13.5219H67.4101C67.212 13.5062 67.0475 13.3554 67.0261 13.1607V6.93451C67.0261 5.68111 67.1663 3.84656 65.6702 3.84656C65.1431 3.84656 64.6586 4.21096 64.4179 4.76384C64.1131 5.46436 64.0735 6.16174 64.0735 6.93451V13.1073C64.0705 13.3366 63.8816 13.5219 63.65 13.5219" fill="black"/>
<path fill-rule="evenodd" clip-rule="evenodd" d="M34.7852 8.04654C34.7852 8.9167 34.8065 9.64235 34.3799 10.4151C34.0356 11.0434 33.4872 11.4298 32.8808 11.4298C32.0489 11.4298 31.5614 10.7764 31.5614 9.81198C31.5614 7.90832 33.216 7.56278 34.7852 7.56278V8.04654ZM36.9699 13.4905C36.8267 13.6224 36.6195 13.6319 36.458 13.5439C35.7389 12.9282 35.6079 12.6423 35.2148 12.0549C34.0265 13.3052 33.1824 13.679 31.6437 13.679C29.8185 13.679 28.4016 12.5198 28.4016 10.1984C28.4016 8.38581 29.3523 7.15126 30.7113 6.54812C31.8874 6.01409 33.5298 5.91985 34.7852 5.77221V5.4832C34.7852 4.95231 34.8248 4.32404 34.5201 3.86541C34.2581 3.45389 33.7522 3.28426 33.3043 3.28426C32.4786 3.28426 31.7442 3.72091 31.5645 4.62561C31.5279 4.82666 31.3847 5.02457 31.1866 5.03399L29.0872 4.80153C28.9105 4.76069 28.7124 4.61305 28.7642 4.33347C29.2456 1.7073 31.5492 0.91568 33.609 0.91568C34.6633 0.91568 36.0406 1.20468 36.8724 2.02772C37.9267 3.04237 37.8262 4.3963 37.8262 5.86959V9.3502C37.8262 10.3963 38.2467 10.8549 38.6428 11.4204C38.7799 11.6214 38.8104 11.8633 38.6336 12.0141C38.1918 12.3942 37.4057 13.101 36.973 13.4968L36.9699 13.4905" fill="black"/>
<path fill-rule="evenodd" clip-rule="evenodd" d="M6.38358 8.04676C6.38358 8.91691 6.40491 9.64256 5.97832 10.4153C5.634 11.0436 5.08858 11.43 4.47917 11.43C3.64732 11.43 3.16284 10.7766 3.16284 9.81219C3.16284 7.90854 4.81739 7.56299 6.38358 7.56299V8.04676ZM8.56832 13.4907C8.42511 13.6226 8.21791 13.6321 8.05641 13.5441C7.33731 12.9284 7.20933 12.6425 6.81321 12.0551C5.62486 13.3054 4.78388 13.6792 3.24207 13.6792C1.41993 13.6792 0 12.52 0 10.1986C0 8.38602 0.953728 7.15147 2.30967 6.54833C3.48583 6.0143 5.12819 5.92006 6.38358 5.77242V5.48342C6.38358 4.95253 6.42319 4.32426 6.12153 3.86562C5.85644 3.4541 5.35063 3.28447 4.90576 3.28447C4.08001 3.28447 3.34262 3.72112 3.16284 4.62583C3.12628 4.82687 2.98307 5.02478 2.78806 5.0342L0.685588 4.80174C0.508858 4.76091 0.313846 4.61326 0.362599 4.33368C0.847081 1.70752 3.14761 0.915894 5.20742 0.915894C6.2617 0.915894 7.63897 1.2049 8.47081 2.02793C9.52509 3.04259 9.42454 4.39651 9.42454 5.8698V9.35041C9.42454 10.3965 9.84504 10.8551 10.2412 11.4206C10.3813 11.6216 10.4118 11.8635 10.2351 12.0143C9.79323 12.3944 9.0071 13.1012 8.57441 13.497L8.56832 13.4907" fill="black"/>
</g>
<defs>
<clipPath id="clip0_1272_4864">
<rect width="70" height="21.7476" fill="white" transform="translate(0 0.91568)"/>
</clipPath>
</defs>
</svg>
