<svg width="82" height="83" viewBox="0 0 82 83" fill="none" xmlns="http://www.w3.org/2000/svg">
<path d="M0 40.579C0 21.7228 0 12.2947 5.85786 6.43684C11.7157 0.578979 21.1438 0.578979 40 0.578979H42C60.8562 0.578979 70.2843 0.578979 76.1421 6.43684C82 12.2947 82 21.7228 82 40.579V42.579C82 61.4352 82 70.8633 76.1421 76.7211C70.2843 82.579 60.8562 82.579 42 82.579H40C21.1438 82.579 11.7157 82.579 5.85786 76.7211C0 70.8633 0 61.4352 0 42.579V40.579Z" fill="#009379" fill-opacity="0.2"/>
<path opacity="0.2" d="M54.125 27.1415H48.875C48.1501 27.1415 47.5625 27.7291 47.5625 28.454V33.704C47.5625 34.4289 48.1501 35.0165 48.875 35.0165H54.125C54.8499 35.0165 55.4375 34.4289 55.4375 33.704V28.454C55.4375 27.7291 54.8499 27.1415 54.125 27.1415Z" fill="#009379"/>
<path opacity="0.2" d="M27.875 27.204H33.125C33.8154 27.204 34.375 27.7636 34.375 28.454V33.704C34.375 34.3943 33.8154 34.954 33.125 34.954H27.875C27.1846 34.954 26.625 34.3943 26.625 33.704V28.454C26.625 27.7636 27.1846 27.204 27.875 27.204Z" fill="#009379" stroke="#009379" stroke-width="0.125"/>
<path opacity="0.2" d="M48.875 48.204H54.125C54.8154 48.204 55.375 48.7636 55.375 49.454V54.704C55.375 55.3943 54.8154 55.954 54.125 55.954H48.875C48.1846 55.954 47.625 55.3943 47.625 54.704V49.454C47.625 48.7636 48.1846 48.204 48.875 48.204Z" fill="#009379" stroke="#009379" stroke-width="0.125"/>
<path opacity="0.2" d="M27.875 48.204H33.125C33.8154 48.204 34.375 48.7636 34.375 49.454V54.704C34.375 55.3943 33.8154 55.954 33.125 55.954H27.875C27.1846 55.954 26.625 55.3943 26.625 54.704V49.454C26.625 48.7636 27.1846 48.204 27.875 48.204Z" fill="#009379" stroke="#009379" stroke-width="0.125"/>
<path d="M54.125 27.1415H48.875C48.1501 27.1415 47.5625 27.7291 47.5625 28.454V33.704C47.5625 34.4289 48.1501 35.0165 48.875 35.0165H54.125C54.8499 35.0165 55.4375 34.4289 55.4375 33.704V28.454C55.4375 27.7291 54.8499 27.1415 54.125 27.1415Z" stroke="#009379" stroke-width="2" stroke-linecap="round" stroke-linejoin="round"/>
<path d="M33.125 27.1415H27.875C27.1501 27.1415 26.5625 27.7291 26.5625 28.454V33.704C26.5625 34.4289 27.1501 35.0165 27.875 35.0165H33.125C33.8499 35.0165 34.4375 34.4289 34.4375 33.704V28.454C34.4375 27.7291 33.8499 27.1415 33.125 27.1415Z" stroke="#009379" stroke-width="2" stroke-linecap="round" stroke-linejoin="round"/>
<path d="M54.125 48.1415H48.875C48.1501 48.1415 47.5625 48.7291 47.5625 49.454V54.704C47.5625 55.4289 48.1501 56.0165 48.875 56.0165H54.125C54.8499 56.0165 55.4375 55.4289 55.4375 54.704V49.454C55.4375 48.7291 54.8499 48.1415 54.125 48.1415Z" stroke="#009379" stroke-width="2" stroke-linecap="round" stroke-linejoin="round"/>
<path d="M33.125 48.1415H27.875C27.1501 48.1415 26.5625 48.7291 26.5625 49.454V54.704C26.5625 55.4289 27.1501 56.0165 27.875 56.0165H33.125C33.8499 56.0165 34.4375 55.4289 34.4375 54.704V49.454C34.4375 48.7291 33.8499 48.1415 33.125 48.1415Z" stroke="#009379" stroke-width="2" stroke-linecap="round" stroke-linejoin="round"/>
<path d="M30.5 48.1415V35.0165" stroke="#009379" stroke-width="2" stroke-linecap="round" stroke-linejoin="round"/>
<path d="M47.5625 52.079H34.4375" stroke="#009379" stroke-width="2" stroke-linecap="round" stroke-linejoin="round"/>
<path d="M51.5 35.0165V48.1415" stroke="#009379" stroke-width="2" stroke-linecap="round" stroke-linejoin="round"/>
<path d="M34.4375 31.079H47.5625" stroke="#009379" stroke-width="2" stroke-linecap="round" stroke-linejoin="round"/>
</svg>
