<svg width="82" height="83" viewBox="0 0 82 83" fill="none" xmlns="http://www.w3.org/2000/svg">
<path d="M0 40.579C0 21.7228 0 12.2947 5.85786 6.43684C11.7157 0.578979 21.1438 0.578979 40 0.578979H42C60.8562 0.578979 70.2843 0.578979 76.1421 6.43684C82 12.2947 82 21.7228 82 40.579V42.579C82 61.4352 82 70.8633 76.1421 76.7211C70.2843 82.579 60.8562 82.579 42 82.579H40C21.1438 82.579 11.7157 82.579 5.85786 76.7211C0 70.8633 0 61.4352 0 42.579V40.579Z" fill="#F8D57E" fill-opacity="0.2"/>
<path opacity="0.2" d="M25.4305 32.818C25.3116 33.0222 25.2493 33.2544 25.25 33.4906V49.6672C25.2513 49.9009 25.3141 50.1301 25.4322 50.3317C25.5503 50.5333 25.7195 50.7003 25.9227 50.8156L40.3602 58.9367C40.5548 59.048 40.7759 59.1046 41 59.1008L41.1477 41.5789L25.4305 32.818Z" fill="#F8D57E"/>
<path d="M56.75 49.6672V33.4907C56.7487 33.257 56.6859 33.0278 56.5678 32.8262C56.4497 32.6245 56.2805 32.4576 56.0773 32.3422L41.6398 24.2211C41.4453 24.1088 41.2246 24.0497 41 24.0497C40.7754 24.0497 40.5547 24.1088 40.3602 24.2211L25.9227 32.3422C25.7195 32.4576 25.5503 32.6245 25.4322 32.8262C25.3141 33.0278 25.2513 33.257 25.25 33.4907V49.6672C25.2513 49.9009 25.3141 50.1301 25.4322 50.3317C25.5503 50.5333 25.7195 50.7003 25.9227 50.8157L40.3602 58.9368C40.5547 59.0491 40.7754 59.1082 41 59.1082C41.2246 59.1082 41.4453 59.0491 41.6398 58.9368L56.0773 50.8157C56.2805 50.7003 56.4497 50.5333 56.5678 50.3317C56.6859 50.1301 56.7487 49.9009 56.75 49.6672V49.6672Z" stroke="#F8D57E" stroke-width="2" stroke-linecap="round" stroke-linejoin="round"/>
<path d="M49.0391 45.5985V37.0673L33.125 28.2899" stroke="#F8D57E" stroke-width="2" stroke-linecap="round" stroke-linejoin="round"/>
<path d="M56.5695 32.818L41.1477 41.5789L25.4305 32.818" stroke="#F8D57E" stroke-width="2" stroke-linecap="round" stroke-linejoin="round"/>
<path d="M41.1477 41.579L41 59.1009" stroke="#F8D57E" stroke-width="2" stroke-linecap="round" stroke-linejoin="round"/>
</svg>
