<svg width="179" height="32" viewBox="0 0 179 32" fill="none" xmlns="http://www.w3.org/2000/svg">
<path d="M27 9H5C4.44772 9 4 9.44772 4 10V25C4 25.5523 4.44772 26 5 26H27C27.5523 26 28 25.5523 28 25V10C28 9.44772 27.5523 9 27 9Z" stroke="#2D2D2D" stroke-width="2" stroke-linecap="round" stroke-linejoin="round"/>
<path d="M10 3L16 9L22 3" stroke="#2D2D2D" stroke-width="2" stroke-linecap="round" stroke-linejoin="round"/>
<path d="M23.5 16C24.3284 16 25 15.3284 25 14.5C25 13.6716 24.3284 13 23.5 13C22.6716 13 22 13.6716 22 14.5C22 15.3284 22.6716 16 23.5 16Z" fill="#2D2D2D"/>
<path d="M23.5 22C24.3284 22 25 21.3284 25 20.5C25 19.6716 24.3284 19 23.5 19C22.6716 19 22 19.6716 22 20.5C22 21.3284 22.6716 22 23.5 22Z" fill="#2D2D2D"/>
<path d="M19 26V9" stroke="#2D2D2D" stroke-width="2" stroke-linecap="round" stroke-linejoin="round"/>
<path d="M42.9794 20.728H47.6834V23.5H39.3884V8.758H42.9794V20.728ZM48.6822 17.62C48.6822 16.416 48.9062 15.359 49.3542 14.449C49.8162 13.539 50.4392 12.839 51.2232 12.349C52.0072 11.859 52.8822 11.614 53.8482 11.614C54.6742 11.614 55.3952 11.782 56.0112 12.118C56.6412 12.454 57.1242 12.895 57.4602 13.441V11.782H61.0512V23.5H57.4602V21.841C57.1102 22.387 56.6202 22.828 55.9902 23.164C55.3742 23.5 54.6532 23.668 53.8272 23.668C52.8752 23.668 52.0072 23.423 51.2232 22.933C50.4392 22.429 49.8162 21.722 49.3542 20.812C48.9062 19.888 48.6822 18.824 48.6822 17.62ZM57.4602 17.641C57.4602 16.745 57.2082 16.038 56.7042 15.52C56.2142 15.002 55.6122 14.743 54.8982 14.743C54.1842 14.743 53.5752 15.002 53.0712 15.52C52.5812 16.024 52.3362 16.724 52.3362 17.62C52.3362 18.516 52.5812 19.23 53.0712 19.762C53.5752 20.28 54.1842 20.539 54.8982 20.539C55.6122 20.539 56.2142 20.28 56.7042 19.762C57.2082 19.244 57.4602 18.537 57.4602 17.641ZM70.7892 11.656C72.1612 11.656 73.2532 12.104 74.0652 13C74.8912 13.882 75.3042 15.1 75.3042 16.654V23.5H71.7342V17.137C71.7342 16.353 71.5312 15.744 71.1252 15.31C70.7192 14.876 70.1732 14.659 69.4872 14.659C68.8012 14.659 68.2552 14.876 67.8492 15.31C67.4432 15.744 67.2402 16.353 67.2402 17.137V23.5H63.6492V11.782H67.2402V13.336C67.6042 12.818 68.0942 12.412 68.7102 12.118C69.3262 11.81 70.0192 11.656 70.7892 11.656ZM77.0856 17.62C77.0856 16.416 77.3096 15.359 77.7576 14.449C78.2196 13.539 78.8426 12.839 79.6266 12.349C80.4106 11.859 81.2856 11.614 82.2516 11.614C83.0216 11.614 83.7216 11.775 84.3516 12.097C84.9956 12.419 85.4996 12.853 85.8636 13.399V7.96H89.4546V23.5H85.8636V21.82C85.5276 22.38 85.0446 22.828 84.4146 23.164C83.7986 23.5 83.0776 23.668 82.2516 23.668C81.2856 23.668 80.4106 23.423 79.6266 22.933C78.8426 22.429 78.2196 21.722 77.7576 20.812C77.3096 19.888 77.0856 18.824 77.0856 17.62ZM85.8636 17.641C85.8636 16.745 85.6116 16.038 85.1076 15.52C84.6176 15.002 84.0156 14.743 83.3016 14.743C82.5876 14.743 81.9786 15.002 81.4746 15.52C80.9846 16.024 80.7396 16.724 80.7396 17.62C80.7396 18.516 80.9846 19.23 81.4746 19.762C81.9786 20.28 82.5876 20.539 83.3016 20.539C84.0156 20.539 84.6176 20.28 85.1076 19.762C85.6116 19.244 85.8636 18.537 85.8636 17.641ZM93.8585 10.564C93.2285 10.564 92.7105 10.382 92.3045 10.018C91.9125 9.64 91.7165 9.178 91.7165 8.632C91.7165 8.072 91.9125 7.61 92.3045 7.246C92.7105 6.868 93.2285 6.679 93.8585 6.679C94.4745 6.679 94.9785 6.868 95.3705 7.246C95.7765 7.61 95.9795 8.072 95.9795 8.632C95.9795 9.178 95.7765 9.64 95.3705 10.018C94.9785 10.382 94.4745 10.564 93.8585 10.564ZM95.6435 11.782V23.5H92.0525V11.782H95.6435ZM105.386 11.656C106.758 11.656 107.85 12.104 108.662 13C109.488 13.882 109.901 15.1 109.901 16.654V23.5H106.331V17.137C106.331 16.353 106.128 15.744 105.722 15.31C105.316 14.876 104.77 14.659 104.084 14.659C103.398 14.659 102.852 14.876 102.446 15.31C102.04 15.744 101.837 16.353 101.837 17.137V23.5H98.2458V11.782H101.837V13.336C102.201 12.818 102.691 12.412 103.307 12.118C103.923 11.81 104.616 11.656 105.386 11.656ZM116.848 11.614C117.674 11.614 118.395 11.782 119.011 12.118C119.641 12.454 120.124 12.895 120.46 13.441V11.782H124.051V23.479C124.051 24.557 123.834 25.53 123.4 26.398C122.98 27.28 122.329 27.98 121.447 28.498C120.579 29.016 119.494 29.275 118.192 29.275C116.456 29.275 115.049 28.862 113.971 28.036C112.893 27.224 112.277 26.118 112.123 24.718H115.672C115.784 25.166 116.05 25.516 116.47 25.768C116.89 26.034 117.408 26.167 118.024 26.167C118.766 26.167 119.354 25.95 119.788 25.516C120.236 25.096 120.46 24.417 120.46 23.479V21.82C120.11 22.366 119.627 22.814 119.011 23.164C118.395 23.5 117.674 23.668 116.848 23.668C115.882 23.668 115.007 23.423 114.223 22.933C113.439 22.429 112.816 21.722 112.354 20.812C111.906 19.888 111.682 18.824 111.682 17.62C111.682 16.416 111.906 15.359 112.354 14.449C112.816 13.539 113.439 12.839 114.223 12.349C115.007 11.859 115.882 11.614 116.848 11.614ZM120.46 17.641C120.46 16.745 120.208 16.038 119.704 15.52C119.214 15.002 118.612 14.743 117.898 14.743C117.184 14.743 116.575 15.002 116.071 15.52C115.581 16.024 115.336 16.724 115.336 17.62C115.336 18.516 115.581 19.23 116.071 19.762C116.575 20.28 117.184 20.539 117.898 20.539C118.612 20.539 119.214 20.28 119.704 19.762C120.208 19.244 120.46 18.537 120.46 17.641ZM128.875 15.814V10.438H131.689C133.873 10.438 134.797 11.446 134.797 13.147C134.797 14.785 133.873 15.814 131.689 15.814H128.875ZM136.75 13.147C136.75 10.753 135.133 8.863 131.689 8.863H126.964V23.5H128.875V17.389H131.689C135.322 17.389 136.75 15.373 136.75 13.147ZM138.411 17.704C138.411 21.274 140.784 23.689 143.85 23.689C145.971 23.689 147.462 22.597 148.155 21.358V23.5H150.087V11.992H148.155V14.092C147.483 12.895 146.013 11.803 143.871 11.803C140.784 11.803 138.411 14.113 138.411 17.704ZM148.155 17.725C148.155 20.434 146.349 22.009 144.249 22.009C142.149 22.009 140.364 20.413 140.364 17.704C140.364 14.995 142.149 13.462 144.249 13.462C146.349 13.462 148.155 15.058 148.155 17.725ZM152.603 17.704C152.603 21.274 154.976 23.689 158.063 23.689C160.163 23.689 161.654 22.576 162.347 21.337V23.752C162.347 26.209 160.814 27.511 158.777 27.511C156.887 27.511 155.522 26.566 155.102 25.18H153.212C153.59 27.637 155.753 29.17 158.777 29.17C162.158 29.17 164.279 26.923 164.279 23.752V11.992H162.347V14.092C161.675 12.853 160.163 11.803 158.063 11.803C154.976 11.803 152.603 14.113 152.603 17.704ZM162.347 17.725C162.347 20.434 160.541 22.009 158.441 22.009C156.341 22.009 154.556 20.413 154.556 17.704C154.556 14.995 156.341 13.462 158.441 13.462C160.541 13.462 162.347 15.058 162.347 17.725ZM172.401 13.42C174.375 13.42 176.055 14.659 176.034 16.906H168.768C168.978 14.659 170.532 13.42 172.401 13.42ZM177.777 19.951H175.719C175.299 21.19 174.207 22.072 172.485 22.072C170.532 22.072 168.894 20.791 168.747 18.46H177.945C177.987 18.061 178.008 17.725 178.008 17.305C178.008 14.155 175.824 11.803 172.485 11.803C169.125 11.803 166.794 14.092 166.794 17.725C166.794 21.379 169.209 23.689 172.485 23.689C175.341 23.689 177.189 22.051 177.777 19.951Z" fill="#2D2D2D"/>
</svg>
